<?xml version="1.0" encoding="UTF-8" standalone="no"?>
<!DOCTYPE svg PUBLIC "-//W3C//DTD SVG 1.1//EN"
 "http://www.w3.org/Graphics/SVG/1.1/DTD/svg11.dtd">
<!-- Generated by graphviz version 2.43.0 (0)
 -->
<!-- Title: Entity Relationship Diagram Pages: 1 -->
<svg width="623pt" height="153pt"
 viewBox="0.00 0.00 623.00 152.50" xmlns="http://www.w3.org/2000/svg" xmlns:xlink="http://www.w3.org/1999/xlink">
<g id="graph0" class="graph" transform="scale(1 1) rotate(0) translate(4 148.5)">
<title>Entity Relationship Diagram</title>
<polygon fill="white" stroke="transparent" points="-4,4 -4,-148.5 619,-148.5 619,4 -4,4"/>
<text text-anchor="middle" x="307.5" y="-6.8" font-family="Times,serif" font-size="9.00" fill="#a8a8a8">Created by erdantic v0.6.0 &lt;https://github.com/drivendataorg/erdantic&gt;</text>
<!-- target.configuration.ModelErdanticFigure -->
<g id="node1" class="node">
<title>target.configuration.ModelErdanticFigure</title>
<g id="a_node1"><a xlink:title="target.configuration.ModelErdanticFigure&#10;&#10;ModelErdanticFigure.&#10;">
<polygon fill="none" stroke="black" points="0,-123.5 0,-144.5 272,-144.5 272,-123.5 0,-123.5"/>
<text text-anchor="start" x="51.5" y="-131.3" font-family="Times,serif" font-weight="bold" font-size="14.00">ModelErdanticFigure</text>
<polygon fill="none" stroke="black" points="0,-102.5 0,-123.5 58,-123.5 58,-102.5 0,-102.5"/>
<text text-anchor="start" x="9" y="-109.3" font-family="Times,serif" font-size="14.00">field1</text>
<polygon fill="none" stroke="black" points="58,-102.5 58,-123.5 272,-123.5 272,-102.5 58,-102.5"/>
<text text-anchor="start" x="155" y="-109.3" font-family="Times,serif" font-size="14.00">int</text>
<polygon fill="none" stroke="black" points="0,-81.5 0,-102.5 58,-102.5 58,-81.5 0,-81.5"/>
<text text-anchor="start" x="9" y="-88.3" font-family="Times,serif" font-size="14.00">field2</text>
<polygon fill="none" stroke="black" points="58,-81.5 58,-102.5 272,-102.5 272,-81.5 58,-81.5"/>
<text text-anchor="start" x="154.5" y="-88.3" font-family="Times,serif" font-size="14.00">str</text>
<polygon fill="none" stroke="black" points="0,-60.5 0,-81.5 58,-81.5 58,-60.5 0,-60.5"/>
<text text-anchor="start" x="3" y="-67.3" font-family="Times,serif" font-size="14.00">related</text>
<polygon fill="none" stroke="black" points="58,-60.5 58,-81.5 272,-81.5 272,-60.5 58,-60.5"/>
<text text-anchor="start" x="61" y="-67.3" font-family="Times,serif" font-size="14.00">ModelErdanticFigureRelated</text>
</a>
</g>
</g>
<!-- target.configuration.ModelErdanticFigureRelated -->
<g id="node2" class="node">
<title>target.configuration.ModelErdanticFigureRelated</title>
<g id="a_node2"><a xlink:title="target.configuration.ModelErdanticFigureRelated&#10;&#10;ModelErdanticFigureRelated.&#10;">
<polygon fill="none" stroke="black" points="380.5,-59.5 380.5,-80.5 615.5,-80.5 615.5,-59.5 380.5,-59.5"/>
<text text-anchor="start" x="383.5" y="-67.3" font-family="Times,serif" font-weight="bold" font-size="14.00">ModelErdanticFigureRelated</text>
<polygon fill="none" stroke="black" points="380.5,-38.5 380.5,-59.5 507.5,-59.5 507.5,-38.5 380.5,-38.5"/>
<text text-anchor="start" x="424" y="-45.3" font-family="Times,serif" font-size="14.00">field1</text>
<polygon fill="none" stroke="black" points="507.5,-38.5 507.5,-59.5 615.5,-59.5 615.5,-38.5 507.5,-38.5"/>
<text text-anchor="start" x="551.5" y="-45.3" font-family="Times,serif" font-size="14.00">int</text>
<polygon fill="none" stroke="black" points="380.5,-17.5 380.5,-38.5 507.5,-38.5 507.5,-17.5 380.5,-17.5"/>
<text text-anchor="start" x="424" y="-24.3" font-family="Times,serif" font-size="14.00">field2</text>
<polygon fill="none" stroke="black" points="507.5,-17.5 507.5,-38.5 615.5,-38.5 615.5,-17.5 507.5,-17.5"/>
<text text-anchor="start" x="551" y="-24.3" font-family="Times,serif" font-size="14.00">str</text>
</a>
</g>
</g>
<!-- target.configuration.ModelErdanticFigure&#45;&gt;target.configuration.ModelErdanticFigureRelated -->
<g id="edge1" class="edge">
<title>target.configuration.ModelErdanticFigure:e&#45;&gt;target.configuration.ModelErdanticFigureRelated:w</title>
<path fill="none" stroke="black" d="M272,-70.5C314.56,-70.5 328.82,-70.5 364.97,-70.5"/>
<polyline fill="none" stroke="black" points="380,-70.5 375,-70.5 "/>
<polygon fill="black" stroke="black" points="374,-65.5 374,-75.5 372,-75.5 372,-65.5 374,-65.5"/>
<polyline fill="none" stroke="black" points="375,-70.5 370,-70.5 "/>
<polygon fill="black" stroke="black" points="369,-65.5 369,-75.5 367,-75.5 367,-65.5 369,-65.5"/>
<polyline fill="none" stroke="black" points="370,-70.5 365,-70.5 "/>
</g>
</g>
</svg>
