<?xml version="1.0" encoding="UTF-8" standalone="no"?>
<!DOCTYPE svg PUBLIC "-//W3C//DTD SVG 1.1//EN"
 "http://www.w3.org/Graphics/SVG/1.1/DTD/svg11.dtd">
<!-- Generated by graphviz version 2.43.0 (0)
 -->
<!-- Title: Entity Relationship Diagram Pages: 1 -->
<svg width="376pt" height="132pt"
 viewBox="0.00 0.00 376.00 132.00" xmlns="http://www.w3.org/2000/svg" xmlns:xlink="http://www.w3.org/1999/xlink">
<g id="graph0" class="graph" transform="scale(1 1) rotate(0) translate(4 128)">
<title>Entity Relationship Diagram</title>
<polygon fill="white" stroke="transparent" points="-4,4 -4,-128 372,-128 372,4 -4,4"/>
<text text-anchor="middle" x="184" y="-6.8" font-family="Times,serif" font-size="9.00" fill="#a8a8a8">Created by erdantic v0.6.0 &lt;https://github.com/drivendataorg/erdantic&gt;</text>
<!-- target.example_generics.Error -->
<g id="node1" class="node">
<title>target.example_generics.Error</title>
<g id="a_node1"><a xlink:title="target.example_generics.Error&#10;&#10;HTTP error representation.&#10;">
<polygon fill="none" stroke="black" points="272,-59.5 272,-80.5 368,-80.5 368,-59.5 272,-59.5"/>
<text text-anchor="start" x="298.5" y="-67.3" font-family="Times,serif" font-weight="bold" font-size="14.00">Error</text>
<polygon fill="none" stroke="black" points="272,-38.5 272,-59.5 341,-59.5 341,-38.5 272,-38.5"/>
<text text-anchor="start" x="289.5" y="-45.3" font-family="Times,serif" font-size="14.00">code</text>
<polygon fill="none" stroke="black" points="341,-38.5 341,-59.5 368,-59.5 368,-38.5 341,-38.5"/>
<text text-anchor="start" x="344.5" y="-45.3" font-family="Times,serif" font-size="14.00">int</text>
<polygon fill="none" stroke="black" points="272,-17.5 272,-38.5 341,-38.5 341,-17.5 272,-17.5"/>
<text text-anchor="start" x="275" y="-24.3" font-family="Times,serif" font-size="14.00">message</text>
<polygon fill="none" stroke="black" points="341,-17.5 341,-38.5 368,-38.5 368,-17.5 341,-17.5"/>
<text text-anchor="start" x="344" y="-24.3" font-family="Times,serif" font-size="14.00">str</text>
</a>
</g>
</g>
<!-- target.example_generics.Response -->
<g id="node2" class="node">
<title>target.example_generics.Response</title>
<g id="a_node2"><a xlink:title="target.example_generics.Response&#10;&#10;HTTP Response representation.&#10;">
<polygon fill="none" stroke="black" points="0,-102.5 0,-123.5 164,-123.5 164,-102.5 0,-102.5"/>
<text text-anchor="start" x="44" y="-110.3" font-family="Times,serif" font-weight="bold" font-size="14.00">Response</text>
<polygon fill="none" stroke="black" points="0,-81.5 0,-102.5 43,-102.5 43,-81.5 0,-81.5"/>
<text text-anchor="start" x="5.5" y="-88.3" font-family="Times,serif" font-size="14.00">data</text>
<polygon fill="none" stroke="black" points="43,-81.5 43,-102.5 164,-102.5 164,-81.5 43,-81.5"/>
<text text-anchor="start" x="46" y="-88.3" font-family="Times,serif" font-size="14.00">Optional[DataT]</text>
<polygon fill="none" stroke="black" points="0,-60.5 0,-81.5 43,-81.5 43,-60.5 0,-60.5"/>
<text text-anchor="start" x="3" y="-67.3" font-family="Times,serif" font-size="14.00">error</text>
<polygon fill="none" stroke="black" points="43,-60.5 43,-81.5 164,-81.5 164,-60.5 43,-60.5"/>
<text text-anchor="start" x="48" y="-67.3" font-family="Times,serif" font-size="14.00">Optional[Error]</text>
</a>
</g>
</g>
<!-- target.example_generics.Response&#45;&gt;target.example_generics.Error -->
<g id="edge1" class="edge">
<title>target.example_generics.Response:e&#45;&gt;target.example_generics.Error:w</title>
<path fill="none" stroke="black" d="M164,-70.5C205.25,-70.5 219.91,-70.5 253.69,-70.5"/>
<polyline fill="none" stroke="black" points="272,-70.5 267,-70.5 "/>
<polygon fill="black" stroke="black" points="266,-65.5 266,-75.5 264,-75.5 264,-65.5 266,-65.5"/>
<polyline fill="none" stroke="black" points="267,-70.5 262,-70.5 "/>
<ellipse fill="none" stroke="black" cx="258" cy="-70.5" rx="4" ry="4"/>
</g>
</g>
</svg>
